<?xml version="1.0" standalone="no"?>
<svg width="773" height="337" viewBox="0 0 773 337"
  xml:space="preserve"
  version="1.1"
  xmlns="http://www.w3.org/2000/svg">

<title>SVG graphic of net "Z:\home\ralmond\Projects\PNetica\inst\testnets\miniPP-CM.dne" generated by AlmondR at FloridaStateU using Netica 5.05 on Jun 18, 2017 at 17:55:57.</title>

<polygon points="418.203,147.405 416.377,139.616 428,141 " fill="#000000" stroke="none"/>
<polyline points="219,190 418,143 " stroke="#000000" stroke-width="1" fill="none"/>
<polygon points="464.995,152.315 457.028,151.596 462,141 " fill="#000000" stroke="none"/>
<polyline points="450,282 461,151 " stroke="#000000" stroke-width="1" fill="none"/>
<polygon points="496.133,192.348 495.878,184.352 507,188 " fill="#000000" stroke="none"/>
<polyline points="186,198 497,188 " stroke="#000000" stroke-width="1" fill="none"/>
<polygon points="563.441,204.694 558.746,198.217 570,195 " fill="#000000" stroke="none"/>
<polyline points="450,282 561,201 " stroke="#000000" stroke-width="1" fill="none"/>
<polygon points="552.311,176.393 555.431,169.027 564,177 " fill="#000000" stroke="none"/>
<polyline points="462,132 554,173 " stroke="#000000" stroke-width="1" fill="none"/>
<polygon points="412.309,273.565 414.677,265.923 424,273 " fill="#000000" stroke="none"/>
<polyline points="186,198 414,270 " stroke="#000000" stroke-width="1" fill="none"/>
<polygon points="443.991,71.5354 440.379,64.3971 452,63 " fill="#000000" stroke="none"/>
<polyline points="186,198 443,68 " stroke="#000000" stroke-width="1" fill="none"/>
<g id="NTL">
<rect x="399" y="124" width="127" height="17" rx="9" ry="9" fill="#ff8000" stroke-width="0"/>
<rect x="399" y="124" width="127" height="17" rx="9" ry="9" fill-opacity="0" stroke="#000000" stroke-width="1"/>
<text x="405" y="136" font-family="Arial" font-size="11.25">Newton's Third Law?</text>
</g>
<g id="POfMom">
<rect x="508" y="178" width="149" height="17" rx="9" ry="9" fill="#ff8000" stroke-width="0"/>
<rect x="508" y="178" width="149" height="17" rx="9" ry="9" fill-opacity="0" stroke="#000000" stroke-width="1"/>
<text x="514" y="190" font-family="Arial" font-size="11.25">Properties of momentum</text>
</g>
<g id="EnergyTransfer">
<rect x="389" y="274" width="122" height="17" rx="9" ry="9" fill="#ff8000" stroke-width="0"/>
<rect x="389" y="274" width="122" height="17" rx="9" ry="9" fill-opacity="0" stroke="#000000" stroke-width="1"/>
<text x="395" y="286" font-family="Arial" font-size="11.25">Energy can Transfer</text>
</g>
<g id="Physics">
<rect x="116" y="190" width="140" height="17" rx="9" ry="9" fill="#f8eed2" stroke-width="0"/>
<rect x="116" y="190" width="140" height="17" rx="9" ry="9" fill-opacity="0" stroke="#000000" stroke-width="1"/>
<text x="122" y="202" font-family="Arial" font-size="11.25">Physics Understanding</text>
</g>
<g id="IterativeD">
<rect x="356" y="46" width="225" height="17" rx="9" ry="9" fill="#ff8000" stroke-width="0"/>
<rect x="356" y="46" width="225" height="17" rx="9" ry="9" fill-opacity="0" stroke="#000000" stroke-width="1"/>
<text x="362" y="58" font-family="Arial" font-size="11.25">Use iterative design to solve a problem</text>
</g>

</svg>

