<?xml version="1.0" standalone="no"?>
<svg width="253" height="192" viewBox="0 0 253 192"
  xml:space="preserve"
  version="1.1"
  xmlns="http://www.w3.org/2000/svg">

<title>SVG graphic of net "Z:\home\ralmond\Projects\PNetica\inst\testnets\PPtwostepEM.dne" generated by AlmondR at FloridaStateU using Netica 5.05 on Aug 02, 2017 at 17:59:32.</title>

<polygon points="95.7735,68.6286 102.43,73.0662 93,80 " fill="#000000" stroke="none"/>
<polyline points="109,56 99,71 " stroke="#000000" stroke-width="1" fill="none"/>
<text x="111" y="67" font-family="Arial" font-size="11.25">EnergyTransfer</text>
<polygon points="46.0695,72.4339 53.0154,68.4648 55,80 " fill="#000000" stroke="none"/>
<polyline points="39,52 50,71 " stroke="#000000" stroke-width="1" fill="none"/>
<text x="49" y="63" font-family="Arial" font-size="11.25">IterativeD</text>
<g id="TwoStepObs">
<rect x="0" y="83" width="253" height="62" fill="#f8eed2" stroke-width="0"/>
<text x="56" y="97" font-family="Arial" font-size="11.25" font-weight="bold">Partial Credit observable</text>
<line x1="0" y1="102" x2="253" y2="102" stroke="black" stroke-width="1"/>
<text x="5" y="114" font-family="Arial" font-size="11.25">Complete Solution</text>
<text x="5" y="127" font-family="Arial" font-size="11.25">First step but not second</text>
<text x="5" y="140" font-family="Arial" font-size="11.25">No attempt of failed first step</text>
<text x="169" y="114" font-family="Arial" font-size="11.25" fill="#a0a0a3">33.3</text>
<text x="169" y="127" font-family="Arial" font-size="11.25" fill="#a0a0a3">33.3</text>
<text x="169" y="140" font-family="Arial" font-size="11.25" fill="#a0a0a3">33.3</text>
<rect x="196" y="102" width="57" height="43" fill="#c6bea8" stroke-width="0"/>
<line x1="210" y1="103" x2="210" y2="144" stroke="black" stroke-width="1" stroke-dasharray="3,3"/>
<line x1="225" y1="103" x2="225" y2="144" stroke="black" stroke-width="1" stroke-dasharray="3,3"/>
<line x1="239" y1="103" x2="239" y2="144" stroke="black" stroke-width="1" stroke-dasharray="3,3"/>
<rect x="196" y="108" width="19" height="6" fill="#c0c0c0" stroke-width="0"/>
<rect x="196" y="121" width="19" height="6" fill="#c0c0c0" stroke-width="0"/>
<rect x="196" y="134" width="19" height="6" fill="#c0c0c0" stroke-width="0"/>
<rect x="196" y="102" width="57" height="43" fill-opacity="0" stroke="#000000" stroke-width="1"/>
<rect x="0" y="83" width="253" height="62" fill-opacity="0" stroke="#000000" stroke-width="1"/>
</g>

</svg>

