<?xml version="1.0" standalone="no"?>
<svg width="328" height="150" viewBox="0 0 328 150"
  xml:space="preserve"
  version="1.1"
  xmlns="http://www.w3.org/2000/svg">

<title>SVG graphic of net "Z:\home\ralmond\Projects\PNetica\inst\testnets\PPconjEM.dne" generated by AlmondR at FloridaStateU using Netica 5.05 on Aug 02, 2017 at 17:59:03.</title>

<polygon points="119.069,61.4339 126.015,57.4648 128,69 " fill="#000000" stroke="none"/>
<polyline points="108,34 123,60 " stroke="#000000" stroke-width="1" fill="none"/>
<text x="118" y="45" font-family="Arial" font-size="11.25">POfMom</text>
<polygon points="161.438,57.552 168.222,61.792 159,69 " fill="#000000" stroke="none"/>
<polyline points="174,45 165,60 " stroke="#000000" stroke-width="1" fill="none"/>
<text x="176" y="56" font-family="Arial" font-size="11.25">EnergyTransfer</text>
<g id="ConjunctiveObs">
<rect x="69" y="72" width="151" height="49" fill="#f8eed2" stroke-width="0"/>
<text x="76" y="86" font-family="Arial" font-size="11.25" font-weight="bold">Conjunctive Observable</text>
<line x1="69" y1="91" x2="220" y2="91" stroke="black" stroke-width="1"/>
<text x="74" y="103" font-family="Arial" font-size="11.25">Right</text>
<text x="74" y="116" font-family="Arial" font-size="11.25">Wrong</text>
<text x="136" y="103" font-family="Arial" font-size="11.25" fill="#a0a0a3">50.0</text>
<text x="136" y="116" font-family="Arial" font-size="11.25" fill="#a0a0a3">50.0</text>
<rect x="163" y="91" width="57" height="30" fill="#c6bea8" stroke-width="0"/>
<line x1="177" y1="92" x2="177" y2="120" stroke="black" stroke-width="1" stroke-dasharray="3,3"/>
<line x1="192" y1="92" x2="192" y2="120" stroke="black" stroke-width="1" stroke-dasharray="3,3"/>
<line x1="206" y1="92" x2="206" y2="120" stroke="black" stroke-width="1" stroke-dasharray="3,3"/>
<rect x="163" y="97" width="29" height="6" fill="#c0c0c0" stroke-width="0"/>
<rect x="163" y="110" width="29" height="6" fill="#c0c0c0" stroke-width="0"/>
<rect x="163" y="91" width="57" height="30" fill-opacity="0" stroke="#000000" stroke-width="1"/>
<rect x="69" y="72" width="151" height="49" fill-opacity="0" stroke="#000000" stroke-width="1"/>
</g>

</svg>

