<?xml version="1.0" standalone="no"?>
<svg width="324" height="162" viewBox="0 0 324 162"
  xml:space="preserve"
  version="1.1"
  xmlns="http://www.w3.org/2000/svg">

<title>SVG graphic of net "Z:\home\ralmond\Projects\PNetica\inst\testnets\PPcompEM.dne" generated by AlmondR at FloridaStateU using Netica 5.05 on Aug 02, 2017 at 17:58:39.</title>

<polygon points="137.069,67.4339 144.015,63.4648 146,75 " fill="#000000" stroke="none"/>
<polyline points="126,40 141,66 " stroke="#000000" stroke-width="1" fill="none"/>
<text x="136" y="51" font-family="Arial" font-size="11.25">POfMom</text>
<polygon points="179.438,63.552 186.222,67.792 177,75 " fill="#000000" stroke="none"/>
<polyline points="192,51 183,66 " stroke="#000000" stroke-width="1" fill="none"/>
<text x="194" y="62" font-family="Arial" font-size="11.25">NTL</text>
<g id="CompensatoryObs">
<rect x="78" y="78" width="168" height="49" fill="#f8eed2" stroke-width="0"/>
<text x="85" y="92" font-family="Arial" font-size="11.25" font-weight="bold">Compensatory Observable</text>
<line x1="78" y1="97" x2="246" y2="97" stroke="black" stroke-width="1"/>
<text x="83" y="109" font-family="Arial" font-size="11.25">Right</text>
<text x="83" y="122" font-family="Arial" font-size="11.25">Wrong</text>
<text x="162" y="109" font-family="Arial" font-size="11.25" fill="#a0a0a3">50.0</text>
<text x="162" y="122" font-family="Arial" font-size="11.25" fill="#a0a0a3">50.0</text>
<rect x="189" y="97" width="57" height="30" fill="#c6bea8" stroke-width="0"/>
<line x1="203" y1="98" x2="203" y2="126" stroke="black" stroke-width="1" stroke-dasharray="3,3"/>
<line x1="218" y1="98" x2="218" y2="126" stroke="black" stroke-width="1" stroke-dasharray="3,3"/>
<line x1="232" y1="98" x2="232" y2="126" stroke="black" stroke-width="1" stroke-dasharray="3,3"/>
<rect x="189" y="103" width="29" height="6" fill="#c0c0c0" stroke-width="0"/>
<rect x="189" y="116" width="29" height="6" fill="#c0c0c0" stroke-width="0"/>
<rect x="189" y="97" width="57" height="30" fill-opacity="0" stroke="#000000" stroke-width="1"/>
<rect x="78" y="78" width="168" height="49" fill-opacity="0" stroke="#000000" stroke-width="1"/>
</g>

</svg>

